<?xml version="1.0" ?><svg viewBox="0 0 32 32" xmlns="http://www.w3.org/2000/svg"><defs><style>.cls-1{fill:#0e6ae0;}.cls-2{fill:#0593ff;}</style></defs><title/><g id="Share"><path class="cls-1" d="M16,27a9.88,9.88,0,0,1-7-2.84,1,1,0,0,1,.13-1.53A2,2,0,0,0,8,19a1.87,1.87,0,0,0-.59.09,1,1,0,0,1-1.32-.78A8.7,8.7,0,0,1,6,17a10,10,0,0,1,6.72-9.45,1,1,0,0,1,.84.09,1,1,0,0,1,.48.7,2,2,0,0,0,3.92,0,1,1,0,0,1,.48-.7,1,1,0,0,1,.84-.09A10,10,0,0,1,26,17a8.6,8.6,0,0,1-.09,1.31,1,1,0,0,1-1.32.78A1.87,1.87,0,0,0,24,19a2,2,0,0,0-1.16,3.63A1,1,0,0,1,23,24.16,9.88,9.88,0,0,1,16,27Zm-4.8-3.6a8,8,0,0,0,9.6,0A4,4,0,0,1,24,17a8,8,0,0,0-4.45-7.17,4,4,0,0,1-7.1,0A8,8,0,0,0,8,17a4,4,0,0,1,3.2,6.4Z"/><path class="cls-2" d="M16,4a4,4,0,0,0-4,4,3.06,3.06,0,0,0,.06.66,4,4,0,0,0,7.86.08A3.11,3.11,0,0,0,20,8,4,4,0,0,0,16,4Z"/><path class="cls-2" d="M25.25,17.21A3.77,3.77,0,0,0,24,17a4,4,0,1,0,4,4A4,4,0,0,0,25.25,17.21Z"/><path class="cls-2" d="M8,17a3.72,3.72,0,0,0-1.22.2A4,4,0,1,0,8,17Z"/></g></svg>